<svg xmlns="http://www.w3.org/2000/svg" width="20" height="20" viewBox="0 0 20 20" fill="none">
  <path d="M12.4998 2.00003V5.00003C12.4998 5.55232 12.9475 6.00003 13.4998 6.00003H16.4998M6.99982 15V11M9.99982 15L9.99982 7.00003M12.9998 15V11M14.9998 3.50003C14.5548 3.10182 14.0929 2.62951 13.8014 2.32276C13.6074 2.11864 13.3393 2.00003 13.0577 2.00003H5.49959C4.39502 2.00003 3.4996 2.89545 3.49959 4.00002L3.49951 16C3.4995 17.1045 4.39493 18 5.4995 18L14.4995 18C15.6041 18 16.4995 17.1046 16.4996 16.0001L16.4998 5.39822C16.4998 5.14252 16.4023 4.89673 16.2248 4.71264C15.8966 4.37224 15.3486 3.81213 14.9998 3.50003Z" stroke="black" stroke-width="1.08333" stroke-linecap="round" stroke-linejoin="round"/>
</svg>