<svg version="1.1" id="Layer_1" xmlns="http://www.w3.org/2000/svg" xmlns:xlink="http://www.w3.org/1999/xlink" x="0px" y="0px" width="319.454px" height="86.305px" viewBox="0 0 319.454 86.305" enable-background="new 0 0 319.454 86.305" xml:space="preserve"><path fill="#EC2024" d="M312.009,62.815h1.452v6.738c0,0.601,0.203,1.097,0.613,1.48c0.41,0.389,0.953,0.582,1.632,0.582 c0.714,0,1.274-0.188,1.685-0.563s0.617-0.888,0.617-1.53v-6.707h1.446v6.845c0,0.995-0.332,1.773-1.003,2.327 c-0.666,0.562-1.58,0.839-2.734,0.839c-1.186,0-2.1-0.274-2.742-0.817c-0.643-0.546-0.966-1.332-0.966-2.354V62.815z"></path><path fill="#EC2024" d="M308.047,70.577c-0.494,0.658-1.201,1.006-2.118,1.039c-0.047,0-0.097,0-0.144,0 c-0.878,0-1.554-0.376-2.032-1.133c-0.48-0.758-0.721-1.7-0.721-2.831c0-1.17,0.232-2.1,0.702-2.781 c0.468-0.68,1.152-1.021,2.051-1.021c0.047,0,0.097,0,0.144,0.003c1.93,0.06,2.896,1.326,2.896,3.8 C308.825,68.908,308.563,69.883,308.047,70.577 M309.17,63.965c-0.76-0.854-1.839-1.293-3.241-1.321h-0.144 c-1.309,0-2.348,0.478-3.118,1.436c-0.771,0.962-1.157,2.149-1.157,3.573c0,1.515,0.379,2.758,1.134,3.722 c0.757,0.969,1.802,1.452,3.142,1.452l0.144-0.003c1.397-0.026,2.476-0.483,3.235-1.368c0.786-0.917,1.184-2.187,1.184-3.803 C310.348,66.077,309.953,64.848,309.17,63.965z"></path><rect x="226.441" y="62.815" fill="#EC2024" width="1.447" height="9.843"></rect><polygon fill="#EC2024" points="237.176,72.794 231.691,65.6 231.691,72.658 230.314,72.658 230.314,62.815 230.897,62.815 236.235,69.621 236.235,62.815 237.609,62.815 237.609,72.794 "></polygon><path fill="#EC2024" d="M247.131,63.502l-0.601,1.107c-0.729-0.501-1.444-0.755-2.145-0.755c-1.106,0-1.987,0.366-2.627,1.092 c-0.645,0.727-0.964,1.688-0.964,2.884c0,1.139,0.313,2.053,0.945,2.747c0.63,0.694,1.489,1.039,2.573,1.039 c0.772,0,1.396-0.214,1.877-0.642v-2.307h-1.47v-1.142h2.917v4.286c-0.387,0.306-0.925,0.551-1.614,0.736s-1.36,0.277-2.016,0.277 c-1.46,0-2.617-0.457-3.461-1.379c-0.849-0.922-1.274-2.145-1.274-3.672c0-1.523,0.465-2.761,1.395-3.706 c0.93-0.948,2.187-1.421,3.764-1.421C245.535,62.648,246.437,62.933,247.131,63.502"></path><polygon fill="#EC2024" points="262.435,72.794 261.978,72.794 259.45,66.01 257.089,72.794 256.635,72.794 253.289,62.815 254.793,62.815 256.925,69.689 259.257,62.815 259.761,62.815 262.066,69.676 264.231,62.815 265.736,62.815 "></polygon><rect x="267.17" y="62.815" fill="#EC2024" width="1.446" height="9.843"></rect><polygon fill="#EC2024" points="274.91,64.024 274.91,72.658 273.461,72.658 273.461,64.024 270.087,64.024 270.087,62.815 278.438,62.815 278.438,64.024 "></polygon><polygon fill="#EC2024" points="285.735,72.658 285.735,67.903 281.1,67.903 281.1,72.658 279.65,72.658 279.65,62.815 281.1,62.815 281.1,66.759 285.735,66.759 285.735,62.815 287.183,62.815 287.183,72.658 "></polygon><polygon fill="#EC2024" points="297.433,68.253 297.433,72.658 295.986,72.658 295.986,68.253 292.567,62.815 294.062,62.815 296.702,67.114 299.345,62.815 300.839,62.815 "></polygon><path fill="#EC2024" d="M220.832,67.255c-0.225,0.023-0.47,0.037-0.739,0.037c-0.329,0-0.668-0.023-1.016-0.068v-3.199 c0.429-0.044,0.71-0.065,0.854-0.065c0.332,0,0.633,0.016,0.901,0.048c0.47,0.055,0.844,0.161,1.115,0.313 c0.423,0.243,0.637,0.641,0.637,1.191c0,0.669-0.198,1.131-0.595,1.39C221.715,67.08,221.331,67.198,220.832,67.255 M222.025,68.13 c0.567-0.117,1.053-0.428,1.463-0.922c0.41-0.496,0.616-1.053,0.616-1.671c0-1.739-1.092-2.675-3.272-2.806 c-0.178-0.01-0.36-0.016-0.551-0.016c-0.321,0-0.825,0.016-1.525,0.05c-0.697,0.034-1.073,0.05-1.126,0.05v9.843h1.447v-4.29 c0.7,0.041,1.212,0.064,1.535,0.064l0.22,0.324l2.611,3.901h1.658L222.025,68.13z"></path><path fill="#EC2024" d="M212.117,69.595h-1.577l1.577-4.152l0.068-0.18l1.504,4.332H212.117z M212.443,62.68h-0.381l-4.31,9.979 h1.622l0.781-2.073h3.945l0.731,2.073h1.609L212.443,62.68z"></path><path fill="#EC2024" d="M180.266,63.651v-1.008c0.962,0.01,1.706,0.211,2.233,0.608l-0.601,1.036 c-0.549-0.428-1.045-0.64-1.476-0.64C180.37,63.648,180.315,63.648,180.266,63.651"></path><path fill="#EC2024" d="M191.493,72.212l0.53-1.237c0.27,0.183,0.608,0.337,1.011,0.459c0.402,0.123,0.763,0.183,1.081,0.183 c0.564,0,1.019-0.144,1.36-0.431c0.343-0.284,0.513-0.65,0.513-1.094c0-0.332-0.092-0.638-0.282-0.925 c-0.19-0.282-0.671-0.59-1.439-0.93l-0.856-0.371c-0.721-0.313-1.228-0.684-1.512-1.112c-0.29-0.434-0.437-0.948-0.437-1.552 c0-0.736,0.285-1.348,0.841-1.828c0.564-0.485,1.282-0.726,2.157-0.726c1.176,0,1.99,0.178,2.452,0.532l-0.428,1.168 c-0.193-0.131-0.488-0.254-0.886-0.374c-0.395-0.125-0.763-0.183-1.1-0.183c-0.491,0-0.88,0.126-1.162,0.387 c-0.284,0.262-0.426,0.596-0.426,1.003c0,0.251,0.053,0.48,0.154,0.685c0.102,0.206,0.24,0.378,0.423,0.517 c0.181,0.139,0.552,0.334,1.113,0.588l0.869,0.381c0.724,0.316,1.23,0.697,1.522,1.137c0.293,0.443,0.438,1.003,0.438,1.685 c0,0.738-0.318,1.368-0.961,1.88c-0.64,0.515-1.493,0.773-2.564,0.773C192.964,72.826,192.162,72.619,191.493,72.212"></path><polygon fill="#EC2024" points="205.188,72.658 205.188,67.903 200.553,67.903 200.553,72.658 199.104,72.658 199.104,62.815 200.553,62.815 200.553,66.759 205.188,66.759 205.188,62.815 206.636,62.815 206.636,72.658 "></polygon><path fill="#EC2024" d="M180.635,71.653c-0.131,0-0.254-0.006-0.369-0.016c-1.227-0.112-1.844-0.805-1.844-2.084 c0-0.599,0.23-1.17,0.688-1.719h2.92v2.716c0,0.309,0.025,0.564,0.078,0.771C181.781,71.544,181.287,71.653,180.635,71.653 M185.521,71.402c-0.355,0.162-0.661,0.251-0.922,0.251c-0.438,0-0.747-0.112-0.925-0.34c-0.18-0.225-0.269-0.643-0.269-1.264 v-2.215h1.805v-1.076h-1.805V65.02l-1.376,0.491v1.23h-2.693c-0.559-0.405-0.841-0.896-0.841-1.479c0-1.031,0.591-1.569,1.771-1.611 v-1.008h-0.067c-0.938,0-1.685,0.242-2.241,0.729c-0.559,0.482-0.838,1.07-0.838,1.758c0,0.673,0.34,1.326,1.021,1.953 c-0.444,0.407-0.753,0.802-0.917,1.181c-0.165,0.381-0.248,0.83-0.248,1.353c0,1.011,0.274,1.797,0.825,2.348s1.329,0.83,2.337,0.83 l0.128-0.002c0.938-0.011,1.737-0.173,2.408-0.476c0.421,0.318,0.854,0.478,1.304,0.478c0.652,0,1.232-0.07,1.736-0.203 L185.521,71.402z"></path><polygon fill="#EC2024" points="144.458,72.794 144.004,72.794 141.473,66.01 139.115,72.794 138.661,72.794 135.313,62.815 136.819,62.815 138.948,69.689 141.28,62.815 141.787,62.815 144.09,69.676 146.255,62.815 147.762,62.815 "></polygon><rect x="149.193" y="62.815" fill="#EC2024" width="1.449" height="9.843"></rect><polygon fill="#EC2024" points="159.927,72.794 154.445,65.6 154.445,72.658 153.069,72.658 153.069,62.815 153.648,62.815 158.984,69.621 158.984,62.815 160.363,62.815 160.363,72.794 "></polygon><path fill="#EC2024" d="M169.885,63.502l-0.604,1.107c-0.729-0.501-1.443-0.755-2.141-0.755c-1.11,0-1.988,0.366-2.631,1.092 c-0.642,0.727-0.961,1.688-0.961,2.884c0,1.139,0.313,2.053,0.943,2.747c0.632,0.694,1.488,1.039,2.575,1.039 c0.771,0,1.396-0.214,1.875-0.642v-2.307h-1.468v-1.142h2.917v4.286c-0.387,0.306-0.927,0.551-1.614,0.736 c-0.691,0.186-1.363,0.277-2.016,0.277c-1.46,0-2.617-0.457-3.463-1.379c-0.85-0.922-1.272-2.145-1.272-3.672 c0-1.523,0.463-2.761,1.393-3.706c0.93-0.948,2.186-1.421,3.763-1.421C168.289,62.648,169.188,62.933,169.885,63.502"></path><path fill="#EC2024" d="M132.34,70.577c-0.494,0.658-1.201,1.006-2.118,1.039c-0.047,0-0.097,0-0.144,0 c-0.878,0-1.554-0.376-2.032-1.133c-0.48-0.758-0.721-1.7-0.721-2.831c0-1.17,0.232-2.1,0.703-2.781 c0.467-0.68,1.152-1.021,2.05-1.021c0.047,0,0.096,0,0.144,0.003c1.93,0.06,2.894,1.326,2.894,3.8 C133.116,68.908,132.86,69.883,132.34,70.577 M133.463,63.965c-0.76-0.854-1.838-1.293-3.241-1.321h-0.144 c-1.309,0-2.351,0.478-3.119,1.436c-0.773,0.962-1.157,2.149-1.157,3.573c0,1.515,0.378,2.758,1.133,3.722 c0.757,0.969,1.805,1.452,3.142,1.452l0.144-0.003c1.399-0.026,2.476-0.483,3.235-1.368c0.786-0.917,1.183-2.187,1.183-3.803 C134.641,66.077,134.247,64.848,133.463,63.965z"></path><path fill="#EC2024" d="M115,63.502l-0.601,1.107c-0.729-0.501-1.442-0.755-2.142-0.755c-1.11,0-1.99,0.366-2.632,1.092 c-0.64,0.727-0.961,1.688-0.961,2.884c0,1.139,0.316,2.053,0.945,2.747s1.489,1.039,2.573,1.039c0.775,0,1.399-0.214,1.877-0.642 v-2.307h-1.467v-1.142h2.914v4.286c-0.384,0.306-0.924,0.551-1.614,0.736s-1.361,0.277-2.014,0.277c-1.46,0-2.619-0.457-3.463-1.379 c-0.849-0.922-1.274-2.145-1.274-3.672c0-1.523,0.465-2.761,1.395-3.706c0.93-0.948,2.186-1.421,3.763-1.421 C113.404,62.648,114.305,62.933,115,63.502"></path><path fill="#EC2024" d="M120.954,67.255c-0.225,0.023-0.47,0.037-0.739,0.037c-0.329,0-0.666-0.023-1.013-0.068v-3.199 c0.425-0.044,0.71-0.065,0.851-0.065c0.332,0,0.635,0.016,0.901,0.048c0.473,0.055,0.843,0.161,1.115,0.313 c0.426,0.243,0.64,0.641,0.64,1.191c0,0.669-0.201,1.131-0.598,1.39C121.839,67.08,121.453,67.198,120.954,67.255 M122.15,68.13 c0.564-0.117,1.05-0.428,1.462-0.922c0.41-0.496,0.614-1.053,0.614-1.671c0-1.739-1.091-2.675-3.272-2.806 c-0.175-0.01-0.36-0.016-0.551-0.016c-0.319,0-0.825,0.016-1.525,0.05c-0.698,0.034-1.074,0.05-1.126,0.05v9.843h1.45v-4.29 c0.7,0.041,1.211,0.064,1.536,0.064l0.217,0.324l2.611,3.901h1.661L122.15,68.13z"></path><path fill-rule="evenodd" clip-rule="evenodd" fill="#003C7A" d="M295.503,43.18l-4.474,0.275l1.473-3.312l1.16-2.487l0.945-2.042 l0.896-1.879l0.053-0.11l4.421,9.278L295.503,43.18z M315.398,47.569l-2.633-4.214l-5.054-8.192l-6.369-10.244l-3.262-5.256 l-2.105-3.378h-0.527l-1.945,3.258l-1.633,2.817l-1.473,2.541l-1.316,2.374l-1.894,3.258l-2.159,3.868l-1.789,3.147l-1.842,3.259 l-1.264,2.153l-1.316,2.319l-4.63,8.12l10.052,5.907l0.841-1.93l0.951-2.155l0.841-1.822l0.788-1.714l15.947-0.992l4.685,8.613 l10.421-6.479L315.398,47.569z"></path><path fill-rule="evenodd" clip-rule="evenodd" fill="#003C7A" d="M154.959,24.678c1.51-1.619,3.79-3.157,6.842-4.611 c3.054-1.455,6.79-2.402,11.212-2.845l1.473,9.279c-1.264,0-2.246,0.029-2.948,0.083c-0.7,0.055-1.429,0.14-2.184,0.248 c-0.755,0.111-1.342,0.231-1.763,0.359c-0.42,0.129-0.93,0.324-1.525,0.581c-0.981,0.516-1.476,1.252-1.476,2.208 c0,0.517,0.28,0.958,0.841,1.327c0.494,0.442,1.458,1.03,2.896,1.768l1.053,0.551l0.896,0.552l0.789,0.443 c3.931,2.208,5.895,4.933,5.895,8.173l-0.053,0.83l-0.055,0.827c-0.279,1.766-0.989,3.416-2.128,4.944 c-1.142,1.527-2.693,2.938-4.659,4.226c-1.964,1.287-4.229,2.337-6.79,3.146c-1.191,0.405-2.508,0.755-3.947,1.051 c-1.439,0.292-2.894,0.514-4.369,0.663l-1.473-9.392c2.807,0,5.289-0.34,7.448-1.021c2.157-0.682,3.236-1.647,3.236-2.899 c0-0.515-0.271-1.003-0.815-1.463c-0.545-0.459-1.044-0.837-1.501-1.132c-0.175-0.146-0.647-0.441-1.421-0.884l-3.001-1.878 c-3.719-2.43-5.343-5.172-5.343-8.229c0-1.252,0.099-2.54,0.765-3.867C153.348,26.648,154.048,25.637,154.959,24.678"></path><path fill-rule="evenodd" clip-rule="evenodd" fill="#003C7A" d="M180.133,18.217h12.421l-0.159,3.755l-0.053,4.308v6.848 l13.686-1.104l-0.053-4.474v-4.749l-0.159-4.584h12.212l-0.055,2.264l-0.053,3.535v3.202l-0.052,3.203l-0.053,3.48v4.805 l0.053,2.928l0.052,2.043l0.053,5.965l0.055,7.843h-12.212l0.104-8.01l0.107-8.062l-13.686,1.103v4.807l0.053,3.923l0.159,6.239 h-12.265l0.053-9.002l0.052-9.115c0-2.319-0.044-6.001-0.13-11.044S180.133,19.909,180.133,18.217"></path><polygon fill-rule="evenodd" clip-rule="evenodd" fill="#003C7A" points="221.684,18.217 233.947,18.217 233.788,26.115 233.632,36.553 233.788,48.315 233.947,57.485 221.684,57.485 221.788,39.811 "></polygon><polygon fill="#003C7A" points="249.818,39.369 249.714,42.187 249.87,47.874 249.978,50.525 250.082,53.288 250.135,58.036 237.873,58.036 237.923,52.184 237.923,48.206 237.978,45.887 238.029,42.075 238.082,39.093 238.137,32.798 238.082,24.237 237.873,17.665 250.135,17.665 249.978,24.126 249.87,30.643 249.818,32.577 249.818,35.78 250.03,35.78 250.662,34.951 251.555,33.736 252.344,32.63 253.924,30.532 255.66,28.268 257.345,26.115 258.766,24.181 259.818,22.802 261.03,21.254 262.607,19.211 264.03,17.334 272.764,25.453 261.659,37.438 263.347,39.313 264.398,40.475 266.869,43.236 269.978,46.715 273.239,50.36 263.924,58.867 261.767,55.827 259.187,52.349 257.557,50.087 256.399,48.483 255.451,47.102 254.135,45.278 250.03,39.369 "></polygon><path fill-rule="evenodd" clip-rule="evenodd" fill="#003C7A" d="M128.089,43.18l-4.474,0.275l1.473-3.312l1.157-2.487l0.948-2.042 l0.948-1.989l4.421,9.278L128.089,43.18z M147.981,47.569l-2.63-4.214l-5.051-8.192l-6.37-10.244l-3.265-5.256l-2.103-3.378h-0.527 l-1.948,3.258l-1.63,2.817l-1.476,2.541l-1.316,2.374l-1.894,3.258l-2.16,3.868l-1.789,3.147l-1.841,3.259l-1.264,2.153 l-1.314,2.319l-4.633,8.12l10.052,5.907l0.843-1.93l0.945-2.155l0.844-1.822l0.789-1.714l15.949-0.992l4.683,8.613l10.42-6.479 L147.981,47.569z"></path><polygon fill="#003C7A" points="49.717,0 55.233,8.72 16.129,77.022 99.612,77.033 105.796,86.272 0,86.305 "></polygon><path fill-rule="evenodd" clip-rule="evenodd" fill="#003C7A" d="M85.815,73.147l-0.133-7.642h0.601l2.254,3.371l2.852,4.271H85.815 z M76.977,73.147h-2.353l-0.133-7.642h9.864l0.13,7.642H76.977z M74.347,57.111h6.325l3.63,5.436l0.029,1.611h-9.864L74.347,57.111z M74.188,47.856h0.297l5.284,7.905h-5.445L74.188,47.856z M65.204,73.147h-1.781l-0.133-7.642h9.854l0.131,7.642H65.204z M63.146,57.111h9.851l0.123,7.047h-9.851L63.146,57.111z M62.987,47.856h9.854l0.136,7.905h-9.854L62.987,47.856z M62.835,39.093 h5.795l4.166,6.235l0.021,1.175h-9.854L62.835,39.093z M62.684,30.206h0.008l5.033,7.533h-4.913L62.684,30.206z M56.474,73.147 h-4.254l-0.131-7.642h9.854l0.131,7.642H56.474z M51.945,57.111h9.851l0.123,7.047h-9.854L51.945,57.111z M51.872,52.949 l-1.334,0.814l0.034,1.998h-3.307l-2.212,1.35h5.542l0.123,7.047h-7.733l-0.25,1.348h8.007l0.131,7.642h-9.854l-0.05-2.915 l-1.34,0.454l0.042,2.461h-9.94l-2.128,0.08l-0.044-0.08h-2.667l1.397-2.272l-0.128-0.229l1.005-1.611l0.342-0.145l2.079-3.384 h6.067l1.144-0.476l0.144-0.872h-6.524l4.33-7.047h3.345l0.222-1.35h-2.737l3.69-6.004l0.073,4.223l1.334-0.839l-0.091-5.285h8.498 l0.554-0.353l-0.768-1.001h-7.6l4.557-7.41h4.461l0.076,4.368l1.345-0.19l-0.07-4.178h9.851l0.128,7.41h-2.277l-0.583,1.354h2.883 l0.136,7.905h-9.854L51.872,52.949z M48.461,34.808l1.703-2.774l0.099,5.705h-3.604L48.461,34.808z M56.474,30.206h4.86l0.13,7.533 H51.61l-0.128-7.533H56.474z M56.474,21.771l0.276-0.452l5.035,7.532h-9.663L56.474,21.771z M88.536,59.883L56.839,11.628 L20.948,74.393h77.118L88.536,59.883z"></path><polygon fill="#EC2024" points="48.516,44.512 59.874,42.899 55.293,53.531 52.911,51.146 43.402,56.966 41.135,69.114 28.728,73.34 26.86,70.003 37.583,65.563 39.336,54.934 50.924,47.642 "></polygon></svg>